<?xml version="1.0" encoding="utf-8"?>
<!-- Generator: Adobe Illustrator 17.1.0, SVG Export Plug-In . SVG Version: 6.00 Build 0)  -->
<!DOCTYPE svg PUBLIC "-//W3C//DTD SVG 1.1//EN" "http://www.w3.org/Graphics/SVG/1.1/DTD/svg11.dtd">
<svg version="1.1" id="Layer_1" xmlns="http://www.w3.org/2000/svg" xmlns:xlink="http://www.w3.org/1999/xlink" x="0px" y="0px"
	 viewBox="0 0 60 60" enable-background="new 0 0 60 60" xml:space="preserve">
<path fill="#666" d="M30,1.3C14.1,1.3,1.3,14.1,1.3,30c0,15.9,12.9,28.7,28.7,28.7S58.7,45.9,58.7,30C58.7,14.1,45.9,1.3,30,1.3z
	 M47.6,16.2c2.8,3.6,4.6,8,4.8,12.8c-3.2-0.7-6.3-1-9.2-1v0h0c-2.3,0-4.5,0.2-6.5,0.6c-0.5-1.2-1-2.4-1.5-3.5
	C39.7,23,44.1,20.2,47.6,16.2z M30,7.6c5.3,0,10.1,1.8,14,4.9c-2.9,3.5-6.8,6.1-11,7.9c-2.9-5.7-5.8-9.8-7.7-12.3
	C26.8,7.8,28.4,7.6,30,7.6z M20.1,9.9c1.6,1.8,4.7,5.9,8,12.2c-6.8,2-13.6,2.5-17.7,2.5c-0.1,0-0.2,0-0.3,0h0c-0.7,0-1.3,0-1.8,0
	C9.9,18.1,14.3,12.8,20.1,9.9z M7.6,30c0-0.1,0-0.2,0-0.3c0.6,0,1.5,0,2.4,0h0c4.5,0,12.4-0.4,20.3-2.9c0.4,0.9,0.9,1.9,1.3,3
	c-5.3,1.8-9.5,4.6-12.6,7.4c-3,2.7-5,5.4-6.2,7.2C9.6,40.5,7.6,35.5,7.6,30z M30,52.4c-5,0-9.6-1.6-13.3-4.4
	c0.8-1.3,2.5-3.8,5.2-6.4c2.8-2.7,6.6-5.4,11.6-7c1.7,4.8,3.2,10.2,4.4,16.4C35.5,51.9,32.8,52.4,30,52.4z M42.7,48.4
	c-1.1-5.6-2.6-10.6-4.1-15.1c1.5-0.2,3-0.3,4.6-0.3h0.1h0h0c2.7,0,5.6,0.3,8.8,1.1C50.9,40,47.5,45.1,42.7,48.4z"/>
</svg>
