<?xml version="1.0" encoding="utf-8"?>
<!-- Generator: Adobe Illustrator 16.0.0, SVG Export Plug-In . SVG Version: 6.00 Build 0)  -->
<!DOCTYPE svg PUBLIC "-//W3C//DTD SVG 1.1//EN" "http://www.w3.org/Graphics/SVG/1.1/DTD/svg11.dtd">
<svg version="1.1" id="Layer_1" xmlns="http://www.w3.org/2000/svg" xmlns:xlink="http://www.w3.org/1999/xlink" x="0px" y="0px"
	 width="205px" height="168px" viewBox="0 0 205 168" enable-background="new 0 0 205 168" xml:space="preserve">
<g>
	<path fill="#DDDDDD" d="M205,163c0,2.762-2.238,5-5,5H5c-2.761,0-5-2.238-5-5V5c0-2.761,2.239-5,5-5h195c2.762,0,5,2.239,5,5V163z"
		/>
	<g>
		<g>
			<path fill="#AAAAAA" d="M111.895,34.038v13.2c0,1.54-0.184,2.97-0.551,4.29l-9.02,33.441h-23.21l9.46-35.201h-34.1v-15.73
				H111.895z M57.774,129.957V88.598h42.57v14.631h-19.25v11.549h19.25v15.18H57.774z M147.314,88.598v41.359h-42.57v-15.18h19.25
				v-11.549h-19.25V88.598H147.314z M147.314,32.938v16.94h9.24v16.279h-9.24v18.811h-24.42V32.938H147.314z"/>
		</g>
	</g>
</g>
</svg>
