<?xml version="1.0" encoding="utf-8"?>
<!-- Generator: Adobe Illustrator 16.0.0, SVG Export Plug-In . SVG Version: 6.00 Build 0)  -->
<!DOCTYPE svg PUBLIC "-//W3C//DTD SVG 1.1//EN" "http://www.w3.org/Graphics/SVG/1.1/DTD/svg11.dtd">
<svg version="1.1" id="Layer_1" xmlns="http://www.w3.org/2000/svg" xmlns:xlink="http://www.w3.org/1999/xlink" x="0px" y="0px"
	 width="30px" height="30.857px" viewBox="0 0 30 30.857" enable-background="new 0 0 30 30.857" xml:space="preserve">
<g>
	<ellipse fill="#A51683" cx="15.067" cy="29.042" rx="5.642" ry="1.684"/>
	<g>
		<path fill="#FFFFFF" d="M22.515,3.28c0,0.033,0.001,0.067,0.005,0.101v0.001v0.003c0.015,0.42,0.213,0.809,0.515,1.1
			c0.303,0.289,0.704,0.466,1.109,0.469h0.008h0.005c0.029,0.003,0.06,0.003,0.089,0.003c0.411,0,0.82-0.178,1.125-0.465
			c0.309-0.288,0.51-0.681,0.526-1.106V3.384V3.382c0.005-0.033,0.006-0.063,0.006-0.097c0-0.435-0.206-0.852-0.522-1.158
			c-0.317-0.308-0.748-0.499-1.167-0.498c-0.138,0-0.272,0.02-0.404,0.06h-0.005L23.8,1.69c-0.348,0.092-0.674,0.306-0.907,0.59
			C22.657,2.563,22.515,2.915,22.515,3.28z"/>
		<path fill="#FFFFFF" d="M4.681,9.742c-0.324-0.15-0.658-0.258-0.986-0.255c-0.057,0-0.111,0-0.167,0.008H3.52H3.513
			C3.038,9.51,2.56,9.717,2.2,10.046c-0.359,0.331-0.596,0.776-0.614,1.269v0.005v0.004c-0.004,0.039-0.005,0.079-0.005,0.116
			c0,0.304,0.093,0.598,0.251,0.863c0.116,0.199,0.269,0.379,0.441,0.537C2.827,11.627,3.694,10.597,4.681,9.742z"/>
		<path fill="#FFFFFF" d="M25.728,15.675c0-1.081-0.389-2.166-1.021-3.041c-1.259-1.754-3.212-2.895-5.244-3.532l-0.014-0.005
			c-0.39-0.117-0.784-0.225-1.182-0.316c-1.187-0.27-2.403-0.405-3.622-0.405c-1.633,0-3.265,0.241-4.829,0.724
			c-2.03,0.646-3.989,1.78-5.247,3.537v0.002c-0.639,0.877-1.011,1.968-1.011,3.054c0,0.398,0.051,0.798,0.156,1.186l0.002,0.001
			c0.228,0.872,0.674,1.65,1.255,2.33c0.576,0.679,1.287,1.259,2.033,1.732c0.166,0.102,0.333,0.199,0.501,0.296
			c2.169,1.21,4.667,1.741,7.146,1.741c0.418,0,0.842-0.016,1.258-0.048c2.496-0.205,5.004-0.941,7.03-2.448l0.001-0.002
			c0.646-0.476,1.242-1.054,1.717-1.71c0.475-0.655,0.82-1.391,0.975-2.188v-0.003l0,0C25.696,16.28,25.728,15.979,25.728,15.675z"
			/>
		<path fill="#FFFFFF" d="M27.699,11.373c0-0.263-0.062-0.525-0.192-0.768l-0.003-0.004l-0.003-0.003
			c-0.176-0.362-0.449-0.637-0.785-0.821c-0.331-0.189-0.719-0.284-1.11-0.284c-0.354,0-0.706,0.081-1.018,0.236
			c0.991,0.86,1.862,1.895,2.425,3.113c0.181-0.156,0.335-0.35,0.449-0.565C27.612,11.996,27.699,11.683,27.699,11.373z"/>
		<path id="reddit_3_" fill="#D857A0" d="M21.09,13.486c0.076,0.198,0.111,0.402,0.111,0.606c0,0.409-0.141,0.805-0.378,1.131
			c-0.235,0.318-0.565,0.568-0.956,0.678l0,0c-0.005,0.001-0.006,0.001-0.008,0.002c-0.003,0-0.004,0.001-0.006,0.001
			c-0.181,0.062-0.371,0.094-0.557,0.094c-0.436,0-0.864-0.158-1.208-0.426c-0.339-0.268-0.597-0.651-0.679-1.104l0,0
			c0-0.002,0-0.004,0-0.006c0-0.001,0-0.001-0.001-0.004h0.001c-0.024-0.118-0.037-0.235-0.037-0.352
			c0-0.393,0.133-0.772,0.355-1.084c0.221-0.312,0.532-0.558,0.896-0.684c0.002,0,0.003-0.004,0.003-0.004c0.002,0,0.002,0,0.004,0
			c0.206-0.075,0.422-0.113,0.638-0.113c0.392,0,0.779,0.118,1.104,0.335c0.321,0.214,0.582,0.528,0.713,0.917
			c0,0.004,0,0.006,0.003,0.009C21.089,13.483,21.09,13.484,21.09,13.486L21.09,13.486L21.09,13.486z M19.89,18.319
			c-0.153-0.1-0.331-0.16-0.52-0.16c-0.15,0-0.308,0.043-0.448,0.137l0,0c-1.327,0.791-2.887,1.225-4.434,1.225
			c-1.161,0-2.314-0.244-3.359-0.757l-0.007-0.005h-0.005c-0.158-0.066-0.337-0.202-0.534-0.334c-0.1-0.063-0.204-0.129-0.319-0.176
			c-0.113-0.048-0.24-0.081-0.375-0.081c-0.112,0-0.229,0.025-0.346,0.078c-0.006,0.003-0.012,0.003-0.019,0.006h0.001
			c-0.181,0.07-0.324,0.195-0.417,0.349c-0.095,0.155-0.142,0.336-0.142,0.516c0,0.164,0.038,0.327,0.118,0.473
			c0.077,0.142,0.194,0.264,0.346,0.347c1.492,1.007,3.253,1.464,5.021,1.464c1.591,0,3.194-0.369,4.622-1.041l0.007-0.005
			l0.007-0.003c0.188-0.112,0.438-0.213,0.674-0.356c0.116-0.076,0.23-0.161,0.328-0.271c0.098-0.112,0.177-0.25,0.221-0.411l0,0
			c0.019-0.073,0.027-0.143,0.027-0.211c0-0.134-0.033-0.258-0.086-0.372C20.171,18.559,20.04,18.419,19.89,18.319z M9.396,15.896
			c0.003,0,0.007,0.001,0.009,0.002c0.19,0.069,0.387,0.105,0.582,0.105c0.487,0,0.957-0.199,1.313-0.523
			c0.358-0.326,0.604-0.786,0.604-1.31c0-0.015,0-0.029-0.001-0.043c0.001-0.024,0.001-0.051,0.001-0.077
			c0-0.52-0.24-0.981-0.593-1.309c-0.357-0.326-0.826-0.527-1.314-0.527c-0.13,0-0.261,0.017-0.392,0.048c-0.002,0-0.004,0-0.004,0
			c0,0-0.003,0-0.005,0c-0.644,0.134-1.21,0.613-1.419,1.272l0,0l0,0c0,0.003,0,0.004,0,0.004c-0.061,0.18-0.088,0.367-0.088,0.551
			c0,0.403,0.134,0.795,0.363,1.12c0.229,0.317,0.55,0.568,0.938,0.684C9.393,15.893,9.393,15.893,9.396,15.896z M29.635,11.188
			v0.003c0.005,0.065,0.006,0.131,0.006,0.196c0,0.728-0.234,1.429-0.623,2.022c-0.367,0.558-0.866,1.022-1.444,1.34
			c0.036,0.288,0.059,0.58,0.059,0.872c-0.001,1.57-0.543,3.111-1.484,4.349l0,0h-0.001c-1.743,2.315-4.417,3.681-7.118,4.371l0,0
			l-0.002,0.003c-1.441,0.349-2.925,0.526-4.409,0.526c-2.215,0-4.424-0.398-6.489-1.225v-0.003H8.125
			c-2.139-0.882-4.177-2.283-5.428-4.337c-0.671-1.094-1.041-2.382-1.041-3.673c0-0.293,0.019-0.585,0.058-0.874
			c-0.564-0.318-1.049-0.768-1.412-1.305c-0.388-0.576-0.633-1.252-0.663-1.967v-0.001v-0.003v-0.004
			c0.001-1.001,0.435-1.948,1.108-2.647c0.677-0.698,1.598-1.155,2.588-1.155c0.013,0,0.027,0,0.041,0
			C3.48,7.669,3.584,7.666,3.69,7.666c0.497,0,0.995,0.082,1.468,0.263L5.16,7.931l0.003,0.002C5.566,8.101,5.968,8.306,6.325,8.59
			c0.117-0.062,0.242-0.128,0.385-0.184c2.167-1.282,4.685-1.777,7.138-1.92c0.02-1.217,0.17-2.489,0.764-3.602
			c0.492-0.926,1.352-1.647,2.373-1.897l0.004-0.001h0.006c0.389-0.078,0.779-0.111,1.169-0.111c1.037,0,2.061,0.245,3.021,0.627
			c0.423-0.639,1.031-1.138,1.741-1.419l0.007-0.006l0.005-0.002c0.42-0.128,0.859-0.206,1.301-0.206
			c0.468,0,0.938,0.085,1.379,0.284V0.151c0.001,0.003,0.003,0.003,0.003,0.003c0.001,0,0.004,0.001,0.007,0.001
			c0.631,0.244,1.167,0.693,1.545,1.252c0.381,0.562,0.604,1.235,0.604,1.926c0,0.126-0.006,0.253-0.021,0.382l-0.002,0.002
			c0,0.003,0,0.005-0.001,0.008c-0.074,0.893-0.526,1.677-1.167,2.235c-0.646,0.562-1.479,0.9-2.335,0.9
			c-0.139,0-0.276-0.006-0.414-0.025c-0.852-0.065-1.642-0.476-2.225-1.086c-0.584-0.61-0.962-1.428-0.962-2.308
			c0-0.044,0.005-0.087,0.007-0.128c-0.799-0.356-1.645-0.65-2.486-0.65c-0.121,0-0.243,0.006-0.366,0.02l0,0
			c-0.631,0.061-1.217,0.457-1.5,1.028l0,0v0.002c-0.43,0.84-0.516,1.821-0.531,2.793c2.417,0.159,4.847,0.739,6.979,1.965h0.002
			l0.03,0.018c0.042,0.024,0.117,0.065,0.185,0.101c0.147-0.119,0.303-0.24,0.479-0.346c0.646-0.431,1.412-0.646,2.177-0.646
			c0.34,0,0.68,0.042,1.011,0.128h0.001l0.015,0.003c0.005,0.002,0.007,0.002,0.011,0.002l0,0c0.781,0.199,1.485,0.646,2.02,1.251
			C29.209,9.589,29.564,10.355,29.635,11.188L29.635,11.188L29.635,11.188L29.635,11.188z M22.517,3.281
			c0,0.032,0.003,0.065,0.003,0.101v0.001v0.003c0.018,0.422,0.216,0.81,0.517,1.101c0.303,0.289,0.705,0.466,1.111,0.469h0.007
			h0.006c0.029,0.001,0.059,0.001,0.087,0.001c0.411,0,0.821-0.179,1.129-0.463c0.305-0.291,0.507-0.684,0.525-1.107V3.385V3.383
			c0.002-0.032,0.002-0.064,0.002-0.096c0-0.438-0.203-0.852-0.521-1.159c-0.317-0.306-0.746-0.499-1.167-0.497
			c-0.137,0-0.271,0.019-0.404,0.059h-0.005l-0.002,0.002c-0.351,0.091-0.673,0.306-0.908,0.589
			C22.661,2.565,22.517,2.918,22.517,3.281z M4.685,9.757C4.361,9.605,4.027,9.498,3.696,9.5c-0.054,0-0.112,0.005-0.167,0.01H3.522
			L3.515,9.512C3.04,9.522,2.562,9.73,2.203,10.062c-0.359,0.328-0.597,0.774-0.613,1.266v0.005l-0.001,0.006
			c-0.004,0.039-0.004,0.077-0.004,0.117c0,0.301,0.092,0.594,0.25,0.862c0.115,0.197,0.271,0.38,0.442,0.537
			C2.83,11.643,3.695,10.611,4.685,9.757z M25.731,15.689c0-1.081-0.392-2.167-1.023-3.043c-1.257-1.751-3.211-2.893-5.244-3.53
			L19.45,9.111c-0.39-0.121-0.784-0.226-1.182-0.316c-1.187-0.27-2.404-0.405-3.62-0.405c-1.633,0-3.266,0.24-4.83,0.722
			c-2.031,0.645-3.99,1.78-5.246,3.538v0.002c-0.639,0.878-1.011,1.968-1.011,3.052c0,0.399,0.05,0.799,0.155,1.188h0
			c0.231,0.872,0.676,1.651,1.256,2.329c0.579,0.68,1.288,1.258,2.036,1.733c0.166,0.104,0.33,0.199,0.5,0.294
			c2.169,1.212,4.667,1.741,7.146,1.741c0.42,0,0.84-0.013,1.258-0.043c2.496-0.207,5.005-0.944,7.03-2.449l0.001-0.003
			c0.646-0.478,1.242-1.053,1.717-1.71s0.821-1.392,0.975-2.189v-0.001l0.001-0.002C25.7,16.296,25.731,15.992,25.731,15.689z
			 M27.703,11.387c-0.002-0.262-0.062-0.523-0.193-0.767l-0.004-0.004v-0.004c-0.178-0.362-0.453-0.635-0.786-0.821
			c-0.333-0.188-0.722-0.284-1.112-0.284c-0.354,0-0.703,0.081-1.017,0.237c0.989,0.86,1.862,1.896,2.425,3.113
			c0.181-0.158,0.334-0.351,0.45-0.563C27.614,12.013,27.703,11.698,27.703,11.387z"/>
	</g>
</g>
</svg>
