<?xml version="1.0" encoding="utf-8"?>
<!-- Generator: Adobe Illustrator 16.0.0, SVG Export Plug-In . SVG Version: 6.00 Build 0)  -->
<!DOCTYPE svg PUBLIC "-//W3C//DTD SVG 1.1//EN" "http://www.w3.org/Graphics/SVG/1.1/DTD/svg11.dtd">
<svg version="1.1" id="Layer_1" xmlns="http://www.w3.org/2000/svg" xmlns:xlink="http://www.w3.org/1999/xlink" x="0px" y="0px"
	 width="100px" height="100px" viewBox="0 0 100 100" enable-background="new 0 0 100 100" xml:space="preserve">
<g>
	<g>
		<path fill="#3B9BC0" d="M77.09,26.867c0,8.135,0,16.269,0,24.405c-8.229-1.517-16.457-3.033-24.949-4.597
			c2.992-2.387,5.754-4.589,8.541-6.812c-5.506-4.197-15.965-4.581-22.27,3.559c-5.852,7.555-4.317,18.524,3.356,23.995
			c3.83,2.73,8.114,3.672,12.73,2.834c5.801-1.053,9.832-4.443,12.373-9.77c3.123,0.764,6.201,1.518,9.332,2.283
			c-0.129,0.383-0.211,0.662-0.318,0.93c-4.23,10.469-14.762,16.891-26.498,16.158c-10.803-0.674-20.475-8.658-23.286-19.254
			c-0.372-1.404-0.602-2.846-0.896-4.271c0-1.686,0-3.371,0-5.055c0.078-0.315,0.187-0.625,0.23-0.944
			c2.814-20.122,26.11-29.643,42.178-17.237c0.254,0.195,0.52,0.376,0.799,0.575c0.416-0.328,0.789-0.621,1.164-0.913
			C72.08,30.79,74.584,28.829,77.09,26.867z"/>
	</g>
</g>
</svg>
