<?xml version="1.0" encoding="utf-8"?>
<!-- Generator: Adobe Illustrator 16.0.0, SVG Export Plug-In . SVG Version: 6.00 Build 0)  -->
<!DOCTYPE svg PUBLIC "-//W3C//DTD SVG 1.1//EN" "http://www.w3.org/Graphics/SVG/1.1/DTD/svg11.dtd">
<svg version="1.1" id="Layer_1" xmlns="http://www.w3.org/2000/svg" xmlns:xlink="http://www.w3.org/1999/xlink" x="0px" y="0px"
	 width="30px" height="30.86px" viewBox="0 0 30 30.86" enable-background="new 0 0 30 30.86" xml:space="preserve">
<g>
	<path d="M12.748,16.01c-0.08,0.621-0.159,1.243-0.239,1.845c-0.286,2.116-0.573,4.243-0.859,6.359
		c-0.132,0.987-0.258,1.979-0.397,2.963c-0.011,0.081-0.079,0.204-0.145,0.222c-0.787,0.219-1.42-0.354-1.293-1.154
		c0.04-0.247,0.062-0.499,0.095-0.772c-0.61,0.161-1.153,0.37-1.611,0.748c-0.659,0.541-0.673,1.202,0,1.72
		c0.318,0.247,0.692,0.45,1.073,0.584c1.604,0.569,3.252,0.606,4.915,0.302c0.776-0.143,1.527-0.365,2.156-0.877
		c0.658-0.534,0.675-1.213-0.002-1.717c-0.374-0.279-0.818-0.482-1.256-0.647c-0.422-0.16-1.337-0.448-1.337-0.448
		s0.789-6.212,1.185-8.903"/>
	<g>
		<path d="M14.614,1.244c-4.142,0-7.499,3.357-7.499,7.501c0,4.142,3.357,7.499,7.499,7.499c4.144,0,7.501-3.357,7.501-7.499
			C22.115,4.601,18.758,1.244,14.614,1.244z"/>
	</g>
	<g>
		<path fill="#FFFFFF" d="M12.369,7.975c-1.067,0-1.933-0.866-1.933-1.934c0-1.065,0.865-1.932,1.933-1.932
			c1.066,0,1.934,0.866,1.934,1.932C14.303,7.109,13.436,7.975,12.369,7.975z"/>
	</g>
</g>
</svg>
