<?xml version="1.0" encoding="utf-8"?>
<!-- Generator: Adobe Illustrator 16.0.0, SVG Export Plug-In . SVG Version: 6.00 Build 0)  -->
<!DOCTYPE svg PUBLIC "-//W3C//DTD SVG 1.1//EN" "http://www.w3.org/Graphics/SVG/1.1/DTD/svg11.dtd">
<svg version="1.1" id="Layer_1" xmlns="http://www.w3.org/2000/svg" xmlns:xlink="http://www.w3.org/1999/xlink" x="0px" y="0px"
	 width="30.625px" height="35.625px" viewBox="0 0 30.625 35.625" enable-background="new 0 0 30.625 35.625" xml:space="preserve">
<g>
	<path fill="#00A27C" d="M21.527,33.128c0,0.921-2.92,1.67-6.523,1.67c-3.601,0-6.523-0.749-6.523-1.67
		c0-0.923,2.922-1.67,6.523-1.67C18.607,31.458,21.527,32.205,21.527,33.128z"/>
	<path opacity="0.65" fill="#7FE5A8" enable-background="new    " d="M20.991,32.57L20.991,32.57l-4.005-13.458h-4.005L8.975,32.57
		h0.004c-0.001,0-0.003,0.015-0.004,0.017c0,0.875,2.693,1.591,6.01,1.591c3.32,0,6.011-0.72,6.011-1.594
		C20.994,32.582,20.992,32.57,20.991,32.57z"/>
	<g>
		<path fill="#d857a0" d="M29.662,10.865c-0.479-0.917-1.269-1.519-2.143-2.014c-0.983-0.558-2.037-0.955-3.121-1.276
			c-0.092-0.027-0.191-0.081-0.249-0.153c-1.157-1.468-2.646-2.475-4.375-3.145c-0.956-0.37-1.946-0.583-2.963-0.709
			c-0.528-0.065-1.384-0.075-1.79-0.059c-0.312-0.017-1.284-0.007-1.812,0.059c-1.016,0.125-2.03,0.34-2.985,0.709
			C8.494,4.946,7.006,5.952,5.848,7.421C5.791,7.493,5.69,7.547,5.599,7.574C4.515,7.896,3.461,8.292,2.478,8.851
			c-0.874,0.495-1.663,1.097-2.143,2.014c-0.469,0.896-0.441,1.795,0.055,2.673c0.52,0.921,1.333,1.522,2.262,1.986
			c2.283,1.138,4.715,1.814,7.228,2.195c1.701,0.257,3.263,0.378,5.141,0.339c1.712,0.039,3.418-0.082,5.118-0.339
			c2.513-0.38,4.935-1.057,7.217-2.195c0.929-0.463,1.736-1.065,2.257-1.986C30.11,12.661,30.13,11.761,29.662,10.865z"/>
		<path fill="#d857a0" d="M22.631,17.754c-3.962,3.659-11.265,3.634-15.206-0.062c2.534,0.674,5.059,0.971,7.615,0.98
			C17.588,18.681,20.109,18.405,22.631,17.754z"/>
		<path fill="#FFFFFF" d="M21.196,7.818c0,1.334-2.965,1.735-6.246,1.735c-3.282,0-6.248-0.504-6.248-1.735
			c0-1.603,2.966-2.902,6.248-2.902C18.232,4.916,21.196,6.215,21.196,7.818z"/>
		<g>
			<path fill="#d857a0" d="M23.943,2.445c-0.491,0.705-1.46,0.877-2.165,0.386c-0.704-0.491-0.877-1.46-0.386-2.164
				c0.492-0.706,1.461-0.878,2.165-0.387C24.262,0.771,24.434,1.74,23.943,2.445z"/>
			<polygon points="20.77,6.04 19.13,4.897 22.345,1.453 22.891,1.834 			"/>
		</g>
		<ellipse fill="#FFFFFF" cx="15.13" cy="14.255" rx="2.22" ry="1.542"/>
		<g>
			<ellipse fill="#FFFFFF" cx="26.085" cy="10.695" rx="1.436" ry="0.998"/>
			<ellipse fill="#FFFFFF" cx="4.176" cy="10.695" rx="1.436" ry="0.998"/>
		</g>
		<g>
			<ellipse fill="#FFFFFF" cx="21.886" cy="13.317" rx="1.717" ry="1.193"/>
			<ellipse fill="#FFFFFF" cx="8.115" cy="13.317" rx="1.717" ry="1.193"/>
		</g>
	</g>
</g>
</svg>
