<?xml version="1.0" encoding="utf-8"?>
<!-- Generator: Adobe Illustrator 16.0.0, SVG Export Plug-In . SVG Version: 6.00 Build 0)  -->
<!DOCTYPE svg PUBLIC "-//W3C//DTD SVG 1.1//EN" "http://www.w3.org/Graphics/SVG/1.1/DTD/svg11.dtd">
<svg version="1.1" id="Layer_1" xmlns="http://www.w3.org/2000/svg" xmlns:xlink="http://www.w3.org/1999/xlink" x="0px" y="0px"
	 width="50.002px" height="76.396px" viewBox="0 0 50.002 76.396" enable-background="new 0 0 50.002 76.396" xml:space="preserve">
<g>
	<path fill="#A51683" d="M30.904,73.571c0,1.559-4.94,2.824-11.037,2.824c-6.09,0-11.033-1.266-11.033-2.824
		c0-1.562,4.943-2.826,11.033-2.826C25.964,70.745,30.904,72.009,30.904,73.571z"/>
	<path fill="#D857A0" d="M49.716,8.087c-1.625-6.862-10.184-8.886-16.176-7.82c-3.314,0.589-6.15,2.623-7.973,5.426
		c-1.828,2.817-1.367,6.602-1.367,9.783c0,3.142,0,6.095,0,9.096c0,1.026,1.467,1.021,1.498,0c0.234-7.296,10.37-5.695,15.325-5.902
		C46.942,18.421,51.166,14.21,49.716,8.087z"/>
	<g>
		<g>
			<path fill="#FFFFFF" d="M32.193,9.573V9.343c-0.098-0.251-0.256-0.429-0.475-0.532c-0.219-0.104-0.453-0.167-0.705-0.188
				c-0.141,0.043-0.256,0.093-0.344,0.147s-0.164,0.114-0.229,0.18c-0.066,0.065-0.127,0.14-0.18,0.222
				c-0.057,0.081-0.121,0.166-0.197,0.254v4.292c0,0.338-0.102,0.603-0.303,0.794c-0.203,0.19-0.426,0.301-0.672,0.328
				c-0.246,0.026-0.473-0.033-0.68-0.181c-0.209-0.147-0.318-0.396-0.328-0.745c-0.021-0.841-0.029-1.796-0.025-2.867
				c0.006-1.069,0.01-2.266,0.01-3.587c0-0.229,0.066-0.421,0.205-0.573c0.135-0.153,0.299-0.257,0.49-0.312s0.387-0.052,0.59,0.008
				c0.201,0.061,0.369,0.184,0.5,0.369c0.611-0.306,1.221-0.401,1.826-0.286c0.605,0.113,1.154,0.4,1.646,0.859
				c0.219-0.219,0.453-0.415,0.705-0.59c0.25-0.175,0.523-0.289,0.818-0.344c0.338-0.055,0.68-0.041,1.023,0.041
				s0.664,0.215,0.959,0.4c0.295,0.187,0.553,0.416,0.777,0.688c0.225,0.273,0.391,0.567,0.5,0.885
				c0.055,0.219,0.082,0.415,0.082,0.59v4.456c0,0.131-0.018,0.256-0.049,0.376c-0.1,0.284-0.254,0.483-0.467,0.599
				c-0.213,0.114-0.432,0.155-0.656,0.122c-0.225-0.032-0.418-0.137-0.582-0.312c-0.162-0.175-0.244-0.409-0.244-0.704V9.327
				c-0.1-0.262-0.24-0.453-0.426-0.573s-0.377-0.175-0.574-0.164s-0.385,0.082-0.564,0.213c-0.182,0.131-0.326,0.312-0.434,0.541
				v4.291c0,0.295-0.098,0.541-0.287,0.738c-0.191,0.196-0.402,0.322-0.631,0.376c-0.23,0.055-0.445,0.033-0.648-0.065
				c-0.201-0.098-0.318-0.295-0.352-0.59L32.193,9.573z"/>
			<path fill="#FFFFFF" d="M45.148,12.062c0.262-0.065,0.492-0.068,0.695-0.008c0.201,0.061,0.357,0.161,0.467,0.303
				c0.109,0.143,0.158,0.317,0.146,0.524c-0.01,0.208-0.104,0.426-0.277,0.655c-0.143,0.186-0.338,0.344-0.59,0.475
				s-0.486,0.235-0.705,0.312c-0.535,0.196-1.043,0.333-1.523,0.41c-0.48,0.075-0.93,0.075-1.352,0
				c-0.42-0.077-0.812-0.235-1.178-0.476c-0.367-0.24-0.709-0.578-1.025-1.016c-0.219-0.295-0.379-0.631-0.482-1.008
				c-0.104-0.376-0.162-0.762-0.172-1.154c-0.012-0.394,0.021-0.781,0.098-1.163s0.186-0.727,0.328-1.032
				c0.186-0.382,0.48-0.731,0.885-1.048c0.404-0.317,0.852-0.568,1.344-0.754c0.49-0.186,0.992-0.292,1.506-0.319
				S44.279,6.815,44.671,7C45,7.154,45.281,7.375,45.515,7.664c0.236,0.29,0.396,0.604,0.484,0.942
				c0.086,0.339,0.096,0.68,0.023,1.023c-0.07,0.345-0.248,0.658-0.531,0.942c-0.273,0.273-0.574,0.494-0.902,0.663
				c-0.326,0.169-0.666,0.317-1.016,0.442c-0.35,0.126-0.707,0.232-1.072,0.319c-0.365,0.088-0.719,0.186-1.057,0.295
				c0.229,0.263,0.492,0.429,0.787,0.499c0.295,0.072,0.602,0.085,0.924,0.042c0.322-0.044,0.648-0.134,0.977-0.271
				c0.326-0.137,0.633-0.286,0.916-0.45L45.148,12.062z M41.837,9.245c-0.25,0.142-0.436,0.319-0.557,0.532
				c-0.119,0.213-0.207,0.511-0.262,0.894c0.283-0.088,0.604-0.181,0.959-0.279c0.354-0.098,0.689-0.201,1.008-0.312
				c0.316-0.108,0.582-0.229,0.801-0.359s0.328-0.273,0.328-0.427c0-0.087-0.014-0.171-0.041-0.254
				c-0.027-0.081-0.084-0.139-0.172-0.171c-0.307-0.109-0.623-0.132-0.949-0.066c-0.328,0.066-0.602,0.158-0.82,0.279L41.837,9.245z
				"/>
		</g>
	</g>
	<path fill="#D857A0" d="M37.482,39.425c-1.266-2.508-2.729-5.039-4.832-6.871l1.742-3.969c0.135,0.018,0.271,0.028,0.408,0.028
		c1.076,0,2.057-0.546,2.625-1.46c0.436-0.701,0.57-1.529,0.383-2.332s-0.678-1.484-1.379-1.919
		c-0.488-0.305-1.051-0.465-1.625-0.465c-1.076,0-2.059,0.546-2.627,1.46c-0.434,0.7-0.57,1.529-0.383,2.332
		c0.09,0.383,0.252,0.734,0.469,1.049l-2.75,3.282c-2.91-1.318-6.266-1.574-9.636-1.574c-3.371,0-6.741,0.259-9.651,1.576
		l-2.75-3.284c0.675-0.979,0.751-2.307,0.085-3.381c-0.568-0.915-1.55-1.46-2.627-1.46c-0.574,0-1.136,0.16-1.625,0.464
		c-1.446,0.897-1.894,2.805-0.996,4.252c0.567,0.914,1.55,1.459,2.626,1.459c0.001,0,0.001,0,0.001,0
		c0.137,0,0.271-0.01,0.406-0.028l1.742,3.971c-2.104,1.833-3.567,4.367-4.833,6.875c-1.415,2.801-2.149,5.842-2.247,9.279
		c-0.181,6.4,2.836,11.734,8.497,14.5c3.346,1.635,7.682,3.016,11.599,3.016h0.022h0.021c3.862,0,7.889-1.33,11.342-3.016
		c5.576-2.725,8.426-7.804,8.24-14.378C39.632,45.396,38.898,42.228,37.482,39.425z"/>
	<path fill="#FFFFFF" d="M35.355,40.497c-1.326-2.629-2.865-5.275-5.119-6.812c-2.281-1.557-5.133-2.271-9.247-2.318l-0.383-0.002
		l-0.731,0.004l-0.745-0.004l-0.38,0.002c-4.116,0.047-6.969,0.762-9.25,2.318c-2.253,1.537-3.791,4.183-5.118,6.814
		c-1.254,2.48-1.905,5.184-1.992,8.266c-0.155,5.488,2.32,9.641,7.161,12.006c3.042,1.486,6.994,2.41,10.575,2.475
		c3.464-0.062,7.223-0.963,10.317-2.475c4.742-2.316,7.064-6.357,6.904-12.006C37.261,45.687,36.609,42.981,35.355,40.497z"/>
	<g>
		<g>
			<circle fill="#D857A0" cx="28.417" cy="44.966" r="4.319"/>
			<circle fill="#FFFFFF" cx="30.005" cy="42.849" r="1.777"/>
		</g>
		<g>
			<circle fill="#D857A0" cx="11.474" cy="44.966" r="4.318"/>
			<circle fill="#FFFFFF" cx="13.062" cy="42.849" r="1.778"/>
		</g>
	</g>
	<path fill="#D857A0" d="M19.869,54.005c1.946,0,3.523-0.779,3.523-2.779h-7.047C16.346,53.226,17.923,54.005,19.869,54.005z"/>
</g>
</svg>
