<?xml version="1.0" encoding="utf-8"?>
<!-- Generator: Adobe Illustrator 16.0.0, SVG Export Plug-In . SVG Version: 6.00 Build 0)  -->
<!DOCTYPE svg PUBLIC "-//W3C//DTD SVG 1.1//EN" "http://www.w3.org/Graphics/SVG/1.1/DTD/svg11.dtd">
<svg version="1.1" id="Layer_1" xmlns="http://www.w3.org/2000/svg" xmlns:xlink="http://www.w3.org/1999/xlink" x="0px" y="0px"
	 width="100px" height="118.249px" viewBox="0 0 100 118.249" enable-background="new 0 0 100 118.249" xml:space="preserve">
<g>
	<path fill="#00A27C" d="M68.955,105.914c0,2.943-9.33,5.336-20.844,5.336c-11.502,0-20.84-2.393-20.84-5.336
		c0-2.949,9.338-5.336,20.84-5.336C59.625,100.578,68.955,102.964,68.955,105.914z"/>
	<path opacity="0.65" fill="#7FE5A8" d="M67.242,104.132h0.002l-12.799-43H41.65l-12.799,43h0.013c-0.004,0-0.01,0.047-0.013,0.055
		c0,2.795,8.604,5.083,19.202,5.083c10.609,0,19.203-2.3,19.203-5.095C67.252,104.169,67.246,104.132,67.242,104.132z"/>
	<g>
		<path fill="#d857a0" d="M94.947,34.783c-1.533-2.93-4.055-4.854-6.846-6.436c-3.143-1.783-6.51-3.051-9.971-4.078
			c-0.293-0.088-0.613-0.259-0.797-0.49c-3.699-4.691-8.453-7.908-13.979-10.047c-3.053-1.18-6.219-1.864-9.465-2.266
			c-1.691-0.21-4.422-0.241-5.72-0.187c-1-0.055-4.102-0.023-5.792,0.187c-3.246,0.401-6.485,1.086-9.537,2.266
			c-5.526,2.139-10.28,5.355-13.979,10.047c-0.184,0.231-0.505,0.402-0.797,0.49c-3.462,1.027-6.829,2.295-9.972,4.078
			c-2.791,1.582-5.312,3.506-6.846,6.436c-1.497,2.864-1.41,5.736,0.176,8.54c1.662,2.943,4.259,4.866,7.228,6.347
			c7.293,3.635,15.066,5.798,23.094,7.013c5.434,0.822,10.425,1.207,16.425,1.084c5.47,0.123,10.919-0.262,16.353-1.084
			c8.027-1.215,15.764-3.378,23.057-7.013c2.969-1.48,5.547-3.403,7.211-6.347C96.377,40.52,96.445,37.647,94.947,34.783z"/>
		<path fill="#d857a0" fill-rule="evenodd" clip-rule="evenodd" d="M72.484,56.794C59.824,68.486,36.491,68.406,23.9,56.597
			c8.096,2.154,16.164,3.102,24.331,3.131C56.373,59.755,64.426,58.875,72.484,56.794z"/>
		<path fill="#FFFFFF" d="M67.898,25.049c0,4.262-9.473,5.545-19.958,5.545c-10.486,0-19.962-1.611-19.962-5.544
			c0-5.123,9.476-9.274,19.962-9.274C58.426,15.775,67.898,19.927,67.898,25.049z"/>
		<g>
			<path fill="#d857a0" d="M76.676,7.881c-1.57,2.252-4.666,2.803-6.92,1.233c-2.248-1.568-2.801-4.664-1.23-6.914
				c1.57-2.255,4.668-2.806,6.918-1.235C77.693,2.532,78.244,5.629,76.676,7.881z"/>
			<polygon fill="#d857a0" points="66.537,19.365 61.299,15.715 71.568,4.712 73.314,5.928 "/>
		</g>
		<ellipse fill="#FFFFFF" cx="48.519" cy="45.616" rx="7.093" ry="4.927"/>
		<g>
코스			<ellipse fill="#FFFFFF" cx="83.519" cy="34.239" rx="4.589" ry="3.188"/>
			<ellipse fill="#FFFFFF" cx="13.519" cy="34.239" rx="4.589" ry="3.188"/>
		</g>
		<g>
			<ellipse fill="#FFFFFF" cx="70.103" cy="42.616" rx="5.485" ry="3.811"/>
			<ellipse fill="#FFFFFF" cx="26.103" cy="42.616" rx="5.486" ry="3.811"/>
		</g>
	</g>
</g>
</svg>
